<?xml version="1.0" standalone="no"?>
<!DOCTYPE svg PUBLIC "-//W3C//DTD SVG 20010904//EN"
 "http://www.w3.org/TR/2001/REC-SVG-20010904/DTD/svg10.dtd">
<svg version="1.0" xmlns="http://www.w3.org/2000/svg"
 width="1929.000000pt" height="1080.000000pt" viewBox="0 0 1929.000000 1080.000000"
 preserveAspectRatio="xMidYMid meet">

<g transform="translate(0.000000,1080.000000) scale(0.100000,-0.100000)"
fill="#000000" stroke="none">
<path d="M9154 6535 c-10 -7 -146 -85 -301 -175 l-283 -162 0 -947 0 -946 108
-61 c59 -34 194 -112 301 -173 l194 -112 241 137 c132 76 250 143 261 151 19
11 44 -1 255 -123 129 -75 247 -142 263 -150 27 -14 34 -11 327 158 l300 173
0 345 0 345 -215 125 c-118 69 -213 129 -211 135 1 5 97 64 212 131 l209 121
0 347 0 348 -190 110 c-104 60 -235 136 -291 169 -55 32 -107 59 -115 59 -8 0
-126 -65 -263 -145 -137 -80 -254 -145 -259 -145 -10 0 -87 44 -378 212 -125
73 -148 83 -165 73z m203 -276 c95 -56 173 -103 173 -105 0 -2 -19 -14 -42
-27 -147 -84 -282 -162 -496 -286 -133 -77 -245 -141 -247 -141 -3 0 -5 93 -5
208 l0 207 208 122 c114 66 213 121 221 122 8 1 93 -44 188 -100z m1037 3 c93
-53 169 -101 169 -106 -1 -7 -860 -513 -1001 -589 -21 -12 10 -31 400 -257
232 -135 462 -267 512 -295 49 -27 91 -54 93 -60 3 -12 -326 -205 -349 -205
-9 0 -80 38 -159 83 -174 101 -1127 651 -1186 685 -24 13 -45 27 -48 32 -3 4
131 87 298 183 819 476 1083 627 1092 627 6 0 86 -44 179 -98z m266 -457 l0
-205 -42 -26 c-215 -127 -386 -223 -398 -224 -17 0 -351 192 -354 203 -1 8
764 456 782 456 9 1 12 -46 12 -204z m-1795 -467 c53 -31 538 -311 1035 -595
91 -52 182 -106 203 -119 l37 -24 0 -200 c0 -109 -3 -201 -8 -204 -4 -2 -156
81 -337 186 -182 105 -492 284 -690 399 l-360 207 -3 212 -2 212 32 -20 c18
-10 60 -35 93 -54z m279 -758 c212 -124 386 -227 386 -230 0 -3 -79 -51 -177
-107 l-176 -102 -36 19 c-20 10 -117 65 -216 123 l-180 106 -3 211 c-1 120 1
210 6 208 5 -1 183 -104 396 -228z m1514 23 l-3 -207 -170 -101 c-93 -56 -173
-100 -177 -98 -5 2 -8 96 -8 207 l0 203 173 101 c94 56 175 101 180 102 4 0 6
-93 5 -207z"/>
</g>
</svg>
